<?xml version="1.0" encoding="UTF-8" standalone="no"?>
<svg id="svg4366" xmlns:rdf="http://www.w3.org/1999/02/22-rdf-syntax-ns#" xmlns="http://www.w3.org/2000/svg" height="596.07" viewBox="0 0 860.00195 596.06824" width="860" version="1.1" xmlns:cc="http://creativecommons.org/ns#" xmlns:dc="http://purl.org/dc/elements/1.1/">
<g id="g4137" stroke-linejoin="round" transform="translate(32.5 -51.411)">
<path id="path4133" d="m683.49 91.411c-2.3646 0.03108-4.829 1.1001-7.7807 3.052-6.5386 4.3238-7.8965 8.643-9.3951 29.875-2.039 28.889-2.0344 28.92 15.358 84.113 15.044 47.743 17.609 78.62 7.4642 89.884-10.702 11.883-14.006 12.232-81.568 8.6283-8.6333-0.46054-41.876-2.1938-73.874-3.852-71.895-3.7256-68.816-3.4678-82.106-6.909-21.554-5.581-36.606-14.155-148.87-84.796-24.319-15.302-29.834-15.761-36.727-3.0587-1.3148 2.4228-7.4816 13.311-13.705 24.196-6.223 10.885-16.138 24.336-22.034 35.631-16.221 31.076-9.4912 33.312-67.174-22.305-19.489-18.791-25.163-16.561-38.435-12.01-0.22381 0.0767-0.42144 0.15231-0.63969 0.22856-0.86601 0.2503-1.7332 0.56207-2.6009 0.95795-0.0119 0.007-0.0233 0.0148-0.0353 0.0219-11.544 4.5545-15.693 11.024-38.484 53.731-11.018 20.645-31.175 56.897-44.794 80.56-32.359 56.224-30.226 51.798-30.424 63.117l-0.15992 9.1678 4.0368 6.4771c4.5439 7.2896 6.2867 8.8329 21.231 18.809 11.151 7.444 17.003 10.418 20.502 10.418 2.8092 0 3.4646 1.8773 4.6512 13.337 3.197 30.876 3.9141 32.323 25.224 50.918 5.3259 4.6472 10.071 8.8638 10.545 9.3694 0.47404 0.50563 4.5925 4.0996 9.1527 7.988 10.204 8.701 12.524 11.432 25.313 29.819 13.118 18.858 12.65 18.245 14.662 19.246 5.2328 2.6039 8.9622-0.55513 11.545-9.7812 0.91887-3.2826 12.038-64.912 18.63-103.26 17.476-101.66 30.424-158.04 37.217-170.84 6.6818-12.595 11.646-10.899 36.037 12.312 37.76 35.934 79.742 61.487 95.855 64.368 16.769 2.9982 22.182 4.3962 25.394 6.5578 3.7851 2.5473 3.3852 1.6079 7.9962 18.803 7.7982 29.08 6.0021 28.27 72.44 32.685l45.681 3.0369 5.2943-2.2335c7.0337-2.9664 8.414-5.732 13.277-26.606 5.4319-23.316 3.8209-22.475 38.547-20.125 35.404 2.3959 38.058 3.9746 38.107 22.672 0.0504 19.189 12.789 26.251 49.61 27.505 8.9878 0.30609 22.159 0.89523 29.269 1.3092 96.741 5.6321 91.252 6.7457 107.6-21.831 16.058-28.067 15.964-19.719 1.3467-120.05-8.6435-59.325-18.656-143.37-21.12-177.26-1.2031-16.553-6.7362-23.265-18.171-22.043-13.586 1.4525-28.553-6.1136-38.727-19.578-6.4944-8.5947-10.646-12.319-15.161-12.26z" stroke="#006400" stroke-width="80" fill="#006400"/>
<g fill="none">
<path id="path4136" d="m683.49 91.411c-2.3646 0.03108-4.829 1.1001-7.7807 3.052-6.5386 4.3238-7.8965 8.643-9.3951 29.875-2.039 28.889-2.0344 28.92 15.358 84.113 15.044 47.743 17.609 78.62 7.4642 89.884-10.702 11.883-14.006 12.232-81.568 8.6283-8.6333-0.46054-41.876-2.1938-73.874-3.852-71.895-3.7256-68.816-3.4678-82.106-6.909-21.554-5.581-36.606-14.155-148.87-84.796-24.319-15.302-29.834-15.761-36.727-3.0587-1.3148 2.4228-7.4816 13.311-13.705 24.196-6.223 10.885-16.138 24.336-22.034 35.631-16.221 31.076-9.4912 33.312-67.174-22.305-19.489-18.791-25.163-16.561-38.435-12.01-0.22381 0.0767-0.42144 0.15231-0.63969 0.22856-0.86601 0.2503-1.7332 0.56207-2.6009 0.95795-0.0119 0.007-0.0233 0.0148-0.0353 0.0219-11.544 4.5545-15.693 11.024-38.484 53.731-11.018 20.645-31.175 56.897-44.794 80.56-32.359 56.224-30.226 51.798-30.424 63.117l-0.15992 9.1678 4.0368 6.4771c4.5439 7.2896 6.2867 8.8329 21.231 18.809 11.151 7.444 17.003 10.418 20.502 10.418 2.8092 0 3.4646 1.8773 4.6512 13.337 3.197 30.876 3.9141 32.323 25.224 50.918 5.3259 4.6472 10.071 8.8638 10.545 9.3694 0.47404 0.50563 4.5925 4.0996 9.1527 7.988 10.204 8.701 12.524 11.432 25.313 29.819 13.118 18.858 12.65 18.245 14.662 19.246 5.2328 2.6039 8.9622-0.55513 11.545-9.7812 0.91887-3.2826 12.038-64.912 18.63-103.26 17.476-101.66 30.424-158.04 37.217-170.84 6.6818-12.595 11.646-10.899 36.037 12.312 37.76 35.934 79.742 61.487 95.855 64.368 16.769 2.9982 22.182 4.3962 25.394 6.5578 3.7851 2.5473 3.3852 1.6079 7.9962 18.803 7.7982 29.08 6.0021 28.27 72.44 32.685l45.681 3.0369 5.2943-2.2335c7.0337-2.9664 8.414-5.732 13.277-26.606 5.4319-23.316 3.8209-22.475 38.547-20.125 35.404 2.3959 38.058 3.9746 38.107 22.672 0.0504 19.189 12.789 26.251 49.61 27.505 8.9878 0.30609 22.159 0.89523 29.269 1.3092 96.741 5.6321 91.252 6.7457 107.6-21.831 16.058-28.067 15.964-19.719 1.3467-120.05-8.6435-59.325-18.656-143.37-21.12-177.26-1.2031-16.553-6.7362-23.265-18.171-22.043-13.586 1.4525-28.553-6.1136-38.727-19.578-6.4944-8.5947-10.646-12.319-15.161-12.26z" stroke="#f00" stroke-width="26"/>
<path id="path4135" d="m683.49 91.411c-2.3646 0.03108-4.829 1.1001-7.7807 3.052-6.5386 4.3238-7.8965 8.643-9.3951 29.875-2.039 28.889-2.0344 28.92 15.358 84.113 15.044 47.743 17.609 78.62 7.4642 89.884-10.702 11.883-14.006 12.232-81.568 8.6283-8.6333-0.46054-41.876-2.1938-73.874-3.852-71.895-3.7256-68.816-3.4678-82.106-6.909-21.554-5.581-36.606-14.155-148.87-84.796-24.319-15.302-29.834-15.761-36.727-3.0587-1.3148 2.4228-7.4816 13.311-13.705 24.196-6.223 10.885-16.138 24.336-22.034 35.631-16.221 31.076-9.4912 33.312-67.174-22.305-19.489-18.791-25.163-16.561-38.435-12.01-0.22381 0.0767-0.42144 0.15231-0.63969 0.22856-0.86601 0.2503-1.7332 0.56207-2.6009 0.95795-0.0119 0.007-0.0233 0.0148-0.0353 0.0219-11.544 4.5545-15.693 11.024-38.484 53.731-11.018 20.645-31.175 56.897-44.794 80.56-32.359 56.224-30.226 51.798-30.424 63.117l-0.15992 9.1678 4.0368 6.4771c4.5439 7.2896 6.2867 8.8329 21.231 18.809 11.151 7.444 17.003 10.418 20.502 10.418 2.8092 0 3.4646 1.8773 4.6512 13.337 3.197 30.876 3.9141 32.323 25.224 50.918 5.3259 4.6472 10.071 8.8638 10.545 9.3694 0.47404 0.50563 4.5925 4.0996 9.1527 7.988 10.204 8.701 12.524 11.432 25.313 29.819 13.118 18.858 12.65 18.245 14.662 19.246 5.2328 2.6039 8.9622-0.55513 11.545-9.7812 0.91887-3.2826 12.038-64.912 18.63-103.26 17.476-101.66 30.424-158.04 37.217-170.84 6.6818-12.595 11.646-10.899 36.037 12.312 37.76 35.934 79.742 61.487 95.855 64.368 16.769 2.9982 22.182 4.3962 25.394 6.5578 3.7851 2.5473 3.3852 1.6079 7.9962 18.803 7.7982 29.08 6.0021 28.27 72.44 32.685l45.681 3.0369 5.2943-2.2335c7.0337-2.9664 8.414-5.732 13.277-26.606 5.4319-23.316 3.8209-22.475 38.547-20.125 35.404 2.3959 38.058 3.9746 38.107 22.672 0.0504 19.189 12.789 26.251 49.61 27.505 8.9878 0.30609 22.159 0.89523 29.269 1.3092 96.741 5.6321 91.252 6.7457 107.6-21.831 16.058-28.067 15.964-19.719 1.3467-120.05-8.6435-59.325-18.656-143.37-21.12-177.26-1.2031-16.553-6.7362-23.265-18.171-22.043-13.586 1.4525-28.553-6.1136-38.727-19.578-6.4944-8.5947-10.646-12.319-15.161-12.26z" stroke="#fff" stroke-dasharray="26,26" stroke-width="26"/>
<path id="path4376" d="m683.49 91.411c-2.3646 0.03108-4.829 1.1001-7.7807 3.052-6.5386 4.3238-7.8965 8.643-9.3951 29.875-2.039 28.889-2.0344 28.92 15.358 84.113 15.044 47.743 17.609 78.62 7.4642 89.884-10.702 11.883-14.006 12.232-81.568 8.6283-8.6333-0.46054-41.876-2.1938-73.874-3.852-71.895-3.7256-68.816-3.4678-82.106-6.909-21.554-5.581-36.606-14.155-148.87-84.796-24.319-15.302-29.834-15.761-36.727-3.0587-1.3148 2.4228-7.4816 13.311-13.705 24.196-6.223 10.885-16.138 24.336-22.034 35.631-16.221 31.076-9.4912 33.312-67.174-22.305-19.489-18.791-25.163-16.561-38.435-12.01-0.22381 0.0767-0.42144 0.15231-0.63969 0.22856-0.86601 0.2503-1.7332 0.56207-2.6009 0.95795-0.0119 0.007-0.0233 0.0148-0.0353 0.0219-11.544 4.5545-15.693 11.024-38.484 53.731-11.018 20.645-31.175 56.897-44.794 80.56-32.359 56.224-30.226 51.798-30.424 63.117l-0.15992 9.1678 4.0368 6.4771c4.5439 7.2896 6.2867 8.8329 21.231 18.809 11.151 7.444 17.003 10.418 20.502 10.418 2.8092 0 3.4646 1.8773 4.6512 13.337 3.197 30.876 3.9141 32.323 25.224 50.918 5.3259 4.6472 10.071 8.8638 10.545 9.3694 0.47404 0.50563 4.5925 4.0996 9.1527 7.988 10.204 8.701 12.524 11.432 25.313 29.819 13.118 18.858 12.65 18.245 14.662 19.246 5.2328 2.6039 8.9622-0.55513 11.545-9.7812 0.91887-3.2826 12.038-64.912 18.63-103.26 17.476-101.66 30.424-158.04 37.217-170.84 6.6818-12.595 11.646-10.899 36.037 12.312 37.76 35.934 79.742 61.487 95.855 64.368 16.769 2.9982 22.182 4.3962 25.394 6.5578 3.7851 2.5473 3.3852 1.6079 7.9962 18.803 7.7982 29.08 6.0021 28.27 72.44 32.685l45.681 3.0369 5.2943-2.2335c7.0337-2.9664 8.414-5.732 13.277-26.606 5.4319-23.316 3.8209-22.475 38.547-20.125 35.404 2.3959 38.058 3.9746 38.107 22.672 0.0504 19.189 12.789 26.251 49.61 27.505 8.9878 0.30609 22.159 0.89523 29.269 1.3092 96.741 5.6321 91.252 6.7457 107.6-21.831 16.058-28.067 15.964-19.719 1.3467-120.05-8.6435-59.325-18.656-143.37-21.12-177.26-1.2031-16.553-6.7362-23.265-18.171-22.043-13.586 1.4525-28.553-6.1136-38.727-19.578-6.4944-8.5947-10.646-12.319-15.161-12.26z" stroke="#141414" stroke-width="20"/>
<path id="path4138" d="m683.49 91.411c-2.3646 0.03108-4.829 1.1001-7.7807 3.052-6.5386 4.3238-7.8965 8.643-9.3951 29.875-2.039 28.889-2.0344 28.92 15.358 84.113 15.044 47.743 17.609 78.62 7.4642 89.884-10.702 11.883-14.006 12.232-81.568 8.6283-8.6333-0.46054-41.876-2.1938-73.874-3.852-71.895-3.7256-68.816-3.4678-82.106-6.909-21.554-5.581-36.606-14.155-148.87-84.796-24.319-15.302-29.834-15.761-36.727-3.0587-1.3148 2.4228-7.4816 13.311-13.705 24.196-6.223 10.885-16.138 24.336-22.034 35.631-16.221 31.076-9.4912 33.312-67.174-22.305-19.489-18.791-25.163-16.561-38.435-12.01-0.22381 0.0767-0.42144 0.15231-0.63969 0.22856-0.86601 0.2503-1.7332 0.56207-2.6009 0.95795-0.0119 0.007-0.0233 0.0148-0.0353 0.0219-11.544 4.5545-15.693 11.024-38.484 53.731-11.018 20.645-31.175 56.897-44.794 80.56-32.359 56.224-30.226 51.798-30.424 63.117l-0.15992 9.1678 4.0368 6.4771c4.5439 7.2896 6.2867 8.8329 21.231 18.809 11.151 7.444 17.003 10.418 20.502 10.418 2.8092 0 3.4646 1.8773 4.6512 13.337 3.197 30.876 3.9141 32.323 25.224 50.918 5.3259 4.6472 10.071 8.8638 10.545 9.3694 0.47404 0.50563 4.5925 4.0996 9.1527 7.988 10.204 8.701 12.524 11.432 25.313 29.819 13.118 18.858 12.65 18.245 14.662 19.246 5.2328 2.6039 8.9622-0.55513 11.545-9.7812 0.91887-3.2826 12.038-64.912 18.63-103.26 17.476-101.66 30.424-158.04 37.217-170.84 6.6818-12.595 11.646-10.899 36.037 12.312 37.76 35.934 79.742 61.487 95.855 64.368 16.769 2.9982 22.182 4.3962 25.394 6.5578 3.7851 2.5473 3.3852 1.6079 7.9962 18.803 7.7982 29.08 6.0021 28.27 72.44 32.685l45.681 3.0369 5.2943-2.2335c7.0337-2.9664 8.414-5.732 13.277-26.606 5.4319-23.316 3.8209-22.475 38.547-20.125 35.404 2.3959 38.058 3.9746 38.107 22.672 0.0504 19.189 12.789 26.251 49.61 27.505 8.9878 0.30609 22.159 0.89523 29.269 1.3092 96.741 5.6321 91.252 6.7457 107.6-21.831 16.058-28.067 15.964-19.719 1.3467-120.05-8.6435-59.325-18.656-143.37-21.12-177.26-1.2031-16.553-6.7362-23.265-18.171-22.043-13.586 1.4525-28.553-6.1136-38.727-19.578-6.4944-8.5947-10.646-12.319-15.161-12.26z" stroke="#fffffe" stroke-dasharray="8,2" stroke-width="2"/>
</g>
</g>
</svg>
